<?xml version="1.0" encoding="utf-8" standalone="no"?>
<!DOCTYPE svg PUBLIC "-//W3C//DTD SVG 1.1//EN"
  "http://www.w3.org/Graphics/SVG/1.1/DTD/svg11.dtd">
<svg xmlns:xlink="http://www.w3.org/1999/xlink" width="1843.468203pt" height="656.015443pt" viewBox="0 0 1843.468203 656.015443" xmlns="http://www.w3.org/2000/svg" version="1.1">
 <metadata>
  <rdf:RDF xmlns:dc="http://purl.org/dc/elements/1.1/" xmlns:cc="http://creativecommons.org/ns#" xmlns:rdf="http://www.w3.org/1999/02/22-rdf-syntax-ns#">
   <cc:Work>
    <dc:type rdf:resource="http://purl.org/dc/dcmitype/StillImage"/>
    <dc:date>2025-04-01T00:58:52.322406</dc:date>
    <dc:format>image/svg+xml</dc:format>
    <dc:creator>
     <cc:Agent>
      <dc:title>Matplotlib v3.10.1, https://matplotlib.org/</dc:title>
     </cc:Agent>
    </dc:creator>
   </cc:Work>
  </rdf:RDF>
 </metadata>
 <defs>
  <style type="text/css">*{stroke-linejoin: round; stroke-linecap: butt}</style>
 </defs>
 <g id="figure_1">
  <g id="patch_1">
   <path d="M 0 656.015443 
L 1843.468203 656.015443 
L 1843.468203 0 
L 0 0 
z
" style="fill: #ffffff"/>
  </g>
  <g id="axes_1">
   <g id="patch_2">
    <path d="M 98.629207 592.296906 
L 1823.716758 592.296906 
L 1823.716758 16.400386 
L 98.629207 16.400386 
z
" style="fill: #ffffff"/>
   </g>
   <g id="matplotlib.axis_1">
    <g id="xtick_1">
     <g id="line2d_1">
      <defs>
       <path id="m6a292cfe66" d="M 0 0 
L 0 3.5 
" style="stroke: #000000; stroke-width: 0.8"/>
      </defs>
      <g>
       <use xlink:href="#m6a292cfe66" x="172.968871" y="592.296906" style="stroke: #000000; stroke-width: 0.8"/>
      </g>
     </g>
     <g id="text_1">
      <!-- 2023-04 -->
      <g transform="translate(152.077465 606.895343) scale(0.1 -0.1)">
       <defs>
        <path id="DejaVuSans-32" d="M 1228 531 
L 3431 531 
L 3431 0 
L 469 0 
L 469 531 
Q 828 903 1448 1529 
Q 2069 2156 2228 2338 
Q 2531 2678 2651 2914 
Q 2772 3150 2772 3378 
Q 2772 3750 2511 3984 
Q 2250 4219 1831 4219 
Q 1534 4219 1204 4116 
Q 875 4013 500 3803 
L 500 4441 
Q 881 4594 1212 4672 
Q 1544 4750 1819 4750 
Q 2544 4750 2975 4387 
Q 3406 4025 3406 3419 
Q 3406 3131 3298 2873 
Q 3191 2616 2906 2266 
Q 2828 2175 2409 1742 
Q 1991 1309 1228 531 
z
" transform="scale(0.015625)"/>
        <path id="DejaVuSans-30" d="M 2034 4250 
Q 1547 4250 1301 3770 
Q 1056 3291 1056 2328 
Q 1056 1369 1301 889 
Q 1547 409 2034 409 
Q 2525 409 2770 889 
Q 3016 1369 3016 2328 
Q 3016 3291 2770 3770 
Q 2525 4250 2034 4250 
z
M 2034 4750 
Q 2819 4750 3233 4129 
Q 3647 3509 3647 2328 
Q 3647 1150 3233 529 
Q 2819 -91 2034 -91 
Q 1250 -91 836 529 
Q 422 1150 422 2328 
Q 422 3509 836 4129 
Q 1250 4750 2034 4750 
z
" transform="scale(0.015625)"/>
        <path id="DejaVuSans-33" d="M 2597 2516 
Q 3050 2419 3304 2112 
Q 3559 1806 3559 1356 
Q 3559 666 3084 287 
Q 2609 -91 1734 -91 
Q 1441 -91 1130 -33 
Q 819 25 488 141 
L 488 750 
Q 750 597 1062 519 
Q 1375 441 1716 441 
Q 2309 441 2620 675 
Q 2931 909 2931 1356 
Q 2931 1769 2642 2001 
Q 2353 2234 1838 2234 
L 1294 2234 
L 1294 2753 
L 1863 2753 
Q 2328 2753 2575 2939 
Q 2822 3125 2822 3475 
Q 2822 3834 2567 4026 
Q 2313 4219 1838 4219 
Q 1578 4219 1281 4162 
Q 984 4106 628 3988 
L 628 4550 
Q 988 4650 1302 4700 
Q 1616 4750 1894 4750 
Q 2613 4750 3031 4423 
Q 3450 4097 3450 3541 
Q 3450 3153 3228 2886 
Q 3006 2619 2597 2516 
z
" transform="scale(0.015625)"/>
        <path id="DejaVuSans-2d" d="M 313 2009 
L 1997 2009 
L 1997 1497 
L 313 1497 
L 313 2009 
z
" transform="scale(0.015625)"/>
        <path id="DejaVuSans-34" d="M 2419 4116 
L 825 1625 
L 2419 1625 
L 2419 4116 
z
M 2253 4666 
L 3047 4666 
L 3047 1625 
L 3713 1625 
L 3713 1100 
L 3047 1100 
L 3047 0 
L 2419 0 
L 2419 1100 
L 313 1100 
L 313 1709 
L 2253 4666 
z
" transform="scale(0.015625)"/>
       </defs>
       <use xlink:href="#DejaVuSans-32"/>
       <use xlink:href="#DejaVuSans-30" transform="translate(63.623047 0)"/>
       <use xlink:href="#DejaVuSans-32" transform="translate(127.246094 0)"/>
       <use xlink:href="#DejaVuSans-33" transform="translate(190.869141 0)"/>
       <use xlink:href="#DejaVuSans-2d" transform="translate(254.492188 0)"/>
       <use xlink:href="#DejaVuSans-30" transform="translate(290.576172 0)"/>
       <use xlink:href="#DejaVuSans-34" transform="translate(354.199219 0)"/>
      </g>
     </g>
    </g>
    <g id="xtick_2">
     <g id="line2d_2">
      <g>
       <use xlink:href="#m6a292cfe66" x="358.308856" y="592.296906" style="stroke: #000000; stroke-width: 0.8"/>
      </g>
     </g>
     <g id="text_2">
      <!-- 2023-07 -->
      <g transform="translate(337.417449 606.895343) scale(0.1 -0.1)">
       <defs>
        <path id="DejaVuSans-37" d="M 525 4666 
L 3525 4666 
L 3525 4397 
L 1831 0 
L 1172 0 
L 2766 4134 
L 525 4134 
L 525 4666 
z
" transform="scale(0.015625)"/>
       </defs>
       <use xlink:href="#DejaVuSans-32"/>
       <use xlink:href="#DejaVuSans-30" transform="translate(63.623047 0)"/>
       <use xlink:href="#DejaVuSans-32" transform="translate(127.246094 0)"/>
       <use xlink:href="#DejaVuSans-33" transform="translate(190.869141 0)"/>
       <use xlink:href="#DejaVuSans-2d" transform="translate(254.492188 0)"/>
       <use xlink:href="#DejaVuSans-30" transform="translate(290.576172 0)"/>
       <use xlink:href="#DejaVuSans-37" transform="translate(354.199219 0)"/>
      </g>
     </g>
    </g>
    <g id="xtick_3">
     <g id="line2d_3">
      <g>
       <use xlink:href="#m6a292cfe66" x="545.685544" y="592.296906" style="stroke: #000000; stroke-width: 0.8"/>
      </g>
     </g>
     <g id="text_3">
      <!-- 2023-10 -->
      <g transform="translate(524.794137 606.895343) scale(0.1 -0.1)">
       <defs>
        <path id="DejaVuSans-31" d="M 794 531 
L 1825 531 
L 1825 4091 
L 703 3866 
L 703 4441 
L 1819 4666 
L 2450 4666 
L 2450 531 
L 3481 531 
L 3481 0 
L 794 0 
L 794 531 
z
" transform="scale(0.015625)"/>
       </defs>
       <use xlink:href="#DejaVuSans-32"/>
       <use xlink:href="#DejaVuSans-30" transform="translate(63.623047 0)"/>
       <use xlink:href="#DejaVuSans-32" transform="translate(127.246094 0)"/>
       <use xlink:href="#DejaVuSans-33" transform="translate(190.869141 0)"/>
       <use xlink:href="#DejaVuSans-2d" transform="translate(254.492188 0)"/>
       <use xlink:href="#DejaVuSans-31" transform="translate(290.576172 0)"/>
       <use xlink:href="#DejaVuSans-30" transform="translate(354.199219 0)"/>
      </g>
     </g>
    </g>
    <g id="xtick_4">
     <g id="line2d_4">
      <g>
       <use xlink:href="#m6a292cfe66" x="733.062232" y="592.296906" style="stroke: #000000; stroke-width: 0.8"/>
      </g>
     </g>
     <g id="text_4">
      <!-- 2024-01 -->
      <g transform="translate(712.170825 606.895343) scale(0.1 -0.1)">
       <use xlink:href="#DejaVuSans-32"/>
       <use xlink:href="#DejaVuSans-30" transform="translate(63.623047 0)"/>
       <use xlink:href="#DejaVuSans-32" transform="translate(127.246094 0)"/>
       <use xlink:href="#DejaVuSans-34" transform="translate(190.869141 0)"/>
       <use xlink:href="#DejaVuSans-2d" transform="translate(254.492188 0)"/>
       <use xlink:href="#DejaVuSans-30" transform="translate(290.576172 0)"/>
       <use xlink:href="#DejaVuSans-31" transform="translate(354.199219 0)"/>
      </g>
     </g>
    </g>
    <g id="xtick_5">
     <g id="line2d_5">
      <g>
       <use xlink:href="#m6a292cfe66" x="918.402217" y="592.296906" style="stroke: #000000; stroke-width: 0.8"/>
      </g>
     </g>
     <g id="text_5">
      <!-- 2024-04 -->
      <g transform="translate(897.51081 606.895343) scale(0.1 -0.1)">
       <use xlink:href="#DejaVuSans-32"/>
       <use xlink:href="#DejaVuSans-30" transform="translate(63.623047 0)"/>
       <use xlink:href="#DejaVuSans-32" transform="translate(127.246094 0)"/>
       <use xlink:href="#DejaVuSans-34" transform="translate(190.869141 0)"/>
       <use xlink:href="#DejaVuSans-2d" transform="translate(254.492188 0)"/>
       <use xlink:href="#DejaVuSans-30" transform="translate(290.576172 0)"/>
       <use xlink:href="#DejaVuSans-34" transform="translate(354.199219 0)"/>
      </g>
     </g>
    </g>
    <g id="xtick_6">
     <g id="line2d_6">
      <g>
       <use xlink:href="#m6a292cfe66" x="1103.742201" y="592.296906" style="stroke: #000000; stroke-width: 0.8"/>
      </g>
     </g>
     <g id="text_6">
      <!-- 2024-07 -->
      <g transform="translate(1082.850795 606.895343) scale(0.1 -0.1)">
       <use xlink:href="#DejaVuSans-32"/>
       <use xlink:href="#DejaVuSans-30" transform="translate(63.623047 0)"/>
       <use xlink:href="#DejaVuSans-32" transform="translate(127.246094 0)"/>
       <use xlink:href="#DejaVuSans-34" transform="translate(190.869141 0)"/>
       <use xlink:href="#DejaVuSans-2d" transform="translate(254.492188 0)"/>
       <use xlink:href="#DejaVuSans-30" transform="translate(290.576172 0)"/>
       <use xlink:href="#DejaVuSans-37" transform="translate(354.199219 0)"/>
      </g>
     </g>
    </g>
    <g id="xtick_7">
     <g id="line2d_7">
      <g>
       <use xlink:href="#m6a292cfe66" x="1291.118889" y="592.296906" style="stroke: #000000; stroke-width: 0.8"/>
      </g>
     </g>
     <g id="text_7">
      <!-- 2024-10 -->
      <g transform="translate(1270.227483 606.895343) scale(0.1 -0.1)">
       <use xlink:href="#DejaVuSans-32"/>
       <use xlink:href="#DejaVuSans-30" transform="translate(63.623047 0)"/>
       <use xlink:href="#DejaVuSans-32" transform="translate(127.246094 0)"/>
       <use xlink:href="#DejaVuSans-34" transform="translate(190.869141 0)"/>
       <use xlink:href="#DejaVuSans-2d" transform="translate(254.492188 0)"/>
       <use xlink:href="#DejaVuSans-31" transform="translate(290.576172 0)"/>
       <use xlink:href="#DejaVuSans-30" transform="translate(354.199219 0)"/>
      </g>
     </g>
    </g>
    <g id="xtick_8">
     <g id="line2d_8">
      <g>
       <use xlink:href="#m6a292cfe66" x="1478.495578" y="592.296906" style="stroke: #000000; stroke-width: 0.8"/>
      </g>
     </g>
     <g id="text_8">
      <!-- 2025-01 -->
      <g transform="translate(1457.604171 606.895343) scale(0.1 -0.1)">
       <defs>
        <path id="DejaVuSans-35" d="M 691 4666 
L 3169 4666 
L 3169 4134 
L 1269 4134 
L 1269 2991 
Q 1406 3038 1543 3061 
Q 1681 3084 1819 3084 
Q 2600 3084 3056 2656 
Q 3513 2228 3513 1497 
Q 3513 744 3044 326 
Q 2575 -91 1722 -91 
Q 1428 -91 1123 -41 
Q 819 9 494 109 
L 494 744 
Q 775 591 1075 516 
Q 1375 441 1709 441 
Q 2250 441 2565 725 
Q 2881 1009 2881 1497 
Q 2881 1984 2565 2268 
Q 2250 2553 1709 2553 
Q 1456 2553 1204 2497 
Q 953 2441 691 2322 
L 691 4666 
z
" transform="scale(0.015625)"/>
       </defs>
       <use xlink:href="#DejaVuSans-32"/>
       <use xlink:href="#DejaVuSans-30" transform="translate(63.623047 0)"/>
       <use xlink:href="#DejaVuSans-32" transform="translate(127.246094 0)"/>
       <use xlink:href="#DejaVuSans-35" transform="translate(190.869141 0)"/>
       <use xlink:href="#DejaVuSans-2d" transform="translate(254.492188 0)"/>
       <use xlink:href="#DejaVuSans-30" transform="translate(290.576172 0)"/>
       <use xlink:href="#DejaVuSans-31" transform="translate(354.199219 0)"/>
      </g>
     </g>
    </g>
    <g id="xtick_9">
     <g id="line2d_9">
      <g>
       <use xlink:href="#m6a292cfe66" x="1661.798859" y="592.296906" style="stroke: #000000; stroke-width: 0.8"/>
      </g>
     </g>
     <g id="text_9">
      <!-- 2025-04 -->
      <g transform="translate(1640.907453 606.895343) scale(0.1 -0.1)">
       <use xlink:href="#DejaVuSans-32"/>
       <use xlink:href="#DejaVuSans-30" transform="translate(63.623047 0)"/>
       <use xlink:href="#DejaVuSans-32" transform="translate(127.246094 0)"/>
       <use xlink:href="#DejaVuSans-35" transform="translate(190.869141 0)"/>
       <use xlink:href="#DejaVuSans-2d" transform="translate(254.492188 0)"/>
       <use xlink:href="#DejaVuSans-30" transform="translate(290.576172 0)"/>
       <use xlink:href="#DejaVuSans-34" transform="translate(354.199219 0)"/>
      </g>
     </g>
    </g>
    <g id="text_10">
     <!-- Date -->
     <g transform="translate(949.222201 620.573468) scale(0.1 -0.1)">
      <defs>
       <path id="DejaVuSans-44" d="M 1259 4147 
L 1259 519 
L 2022 519 
Q 2988 519 3436 956 
Q 3884 1394 3884 2338 
Q 3884 3275 3436 3711 
Q 2988 4147 2022 4147 
L 1259 4147 
z
M 628 4666 
L 1925 4666 
Q 3281 4666 3915 4102 
Q 4550 3538 4550 2338 
Q 4550 1131 3912 565 
Q 3275 0 1925 0 
L 628 0 
L 628 4666 
z
" transform="scale(0.015625)"/>
       <path id="DejaVuSans-61" d="M 2194 1759 
Q 1497 1759 1228 1600 
Q 959 1441 959 1056 
Q 959 750 1161 570 
Q 1363 391 1709 391 
Q 2188 391 2477 730 
Q 2766 1069 2766 1631 
L 2766 1759 
L 2194 1759 
z
M 3341 1997 
L 3341 0 
L 2766 0 
L 2766 531 
Q 2569 213 2275 61 
Q 1981 -91 1556 -91 
Q 1019 -91 701 211 
Q 384 513 384 1019 
Q 384 1609 779 1909 
Q 1175 2209 1959 2209 
L 2766 2209 
L 2766 2266 
Q 2766 2663 2505 2880 
Q 2244 3097 1772 3097 
Q 1472 3097 1187 3025 
Q 903 2953 641 2809 
L 641 3341 
Q 956 3463 1253 3523 
Q 1550 3584 1831 3584 
Q 2591 3584 2966 3190 
Q 3341 2797 3341 1997 
z
" transform="scale(0.015625)"/>
       <path id="DejaVuSans-74" d="M 1172 4494 
L 1172 3500 
L 2356 3500 
L 2356 3053 
L 1172 3053 
L 1172 1153 
Q 1172 725 1289 603 
Q 1406 481 1766 481 
L 2356 481 
L 2356 0 
L 1766 0 
Q 1100 0 847 248 
Q 594 497 594 1153 
L 594 3053 
L 172 3053 
L 172 3500 
L 594 3500 
L 594 4494 
L 1172 4494 
z
" transform="scale(0.015625)"/>
       <path id="DejaVuSans-65" d="M 3597 1894 
L 3597 1613 
L 953 1613 
Q 991 1019 1311 708 
Q 1631 397 2203 397 
Q 2534 397 2845 478 
Q 3156 559 3463 722 
L 3463 178 
Q 3153 47 2828 -22 
Q 2503 -91 2169 -91 
Q 1331 -91 842 396 
Q 353 884 353 1716 
Q 353 2575 817 3079 
Q 1281 3584 2069 3584 
Q 2775 3584 3186 3129 
Q 3597 2675 3597 1894 
z
M 3022 2063 
Q 3016 2534 2758 2815 
Q 2500 3097 2075 3097 
Q 1594 3097 1305 2825 
Q 1016 2553 972 2059 
L 3022 2063 
z
" transform="scale(0.015625)"/>
      </defs>
      <use xlink:href="#DejaVuSans-44"/>
      <use xlink:href="#DejaVuSans-61" transform="translate(77.001953 0)"/>
      <use xlink:href="#DejaVuSans-74" transform="translate(138.28125 0)"/>
      <use xlink:href="#DejaVuSans-65" transform="translate(177.490234 0)"/>
     </g>
    </g>
   </g>
   <g id="matplotlib.axis_2">
    <g id="ytick_1">
     <g id="line2d_10">
      <defs>
       <path id="mfa5dac49aa" d="M 0 0 
L -3.5 0 
" style="stroke: #000000; stroke-width: 0.8"/>
      </defs>
      <g>
       <use xlink:href="#mfa5dac49aa" x="98.629207" y="572.691286" style="stroke: #000000; stroke-width: 0.8"/>
      </g>
     </g>
     <g id="text_11">
      <!-- 25.0 -->
      <g transform="translate(69.363582 576.490505) scale(0.1 -0.1)">
       <defs>
        <path id="DejaVuSans-2e" d="M 684 794 
L 1344 794 
L 1344 0 
L 684 0 
L 684 794 
z
" transform="scale(0.015625)"/>
       </defs>
       <use xlink:href="#DejaVuSans-32"/>
       <use xlink:href="#DejaVuSans-35" transform="translate(63.623047 0)"/>
       <use xlink:href="#DejaVuSans-2e" transform="translate(127.246094 0)"/>
       <use xlink:href="#DejaVuSans-30" transform="translate(159.033203 0)"/>
      </g>
     </g>
    </g>
    <g id="ytick_2">
     <g id="line2d_11">
      <g>
       <use xlink:href="#mfa5dac49aa" x="98.629207" y="504.585635" style="stroke: #000000; stroke-width: 0.8"/>
      </g>
     </g>
     <g id="text_12">
      <!-- 27.5 -->
      <g transform="translate(69.363582 508.384854) scale(0.1 -0.1)">
       <use xlink:href="#DejaVuSans-32"/>
       <use xlink:href="#DejaVuSans-37" transform="translate(63.623047 0)"/>
       <use xlink:href="#DejaVuSans-2e" transform="translate(127.246094 0)"/>
       <use xlink:href="#DejaVuSans-35" transform="translate(159.033203 0)"/>
      </g>
     </g>
    </g>
    <g id="ytick_3">
     <g id="line2d_12">
      <g>
       <use xlink:href="#mfa5dac49aa" x="98.629207" y="436.479984" style="stroke: #000000; stroke-width: 0.8"/>
      </g>
     </g>
     <g id="text_13">
      <!-- 30.0 -->
      <g transform="translate(69.363582 440.279203) scale(0.1 -0.1)">
       <use xlink:href="#DejaVuSans-33"/>
       <use xlink:href="#DejaVuSans-30" transform="translate(63.623047 0)"/>
       <use xlink:href="#DejaVuSans-2e" transform="translate(127.246094 0)"/>
       <use xlink:href="#DejaVuSans-30" transform="translate(159.033203 0)"/>
      </g>
     </g>
    </g>
    <g id="ytick_4">
     <g id="line2d_13">
      <g>
       <use xlink:href="#mfa5dac49aa" x="98.629207" y="368.374333" style="stroke: #000000; stroke-width: 0.8"/>
      </g>
     </g>
     <g id="text_14">
      <!-- 32.5 -->
      <g transform="translate(69.363582 372.173552) scale(0.1 -0.1)">
       <use xlink:href="#DejaVuSans-33"/>
       <use xlink:href="#DejaVuSans-32" transform="translate(63.623047 0)"/>
       <use xlink:href="#DejaVuSans-2e" transform="translate(127.246094 0)"/>
       <use xlink:href="#DejaVuSans-35" transform="translate(159.033203 0)"/>
      </g>
     </g>
    </g>
    <g id="ytick_5">
     <g id="line2d_14">
      <g>
       <use xlink:href="#mfa5dac49aa" x="98.629207" y="300.268682" style="stroke: #000000; stroke-width: 0.8"/>
      </g>
     </g>
     <g id="text_15">
      <!-- 35.0 -->
      <g transform="translate(69.363582 304.067901) scale(0.1 -0.1)">
       <use xlink:href="#DejaVuSans-33"/>
       <use xlink:href="#DejaVuSans-35" transform="translate(63.623047 0)"/>
       <use xlink:href="#DejaVuSans-2e" transform="translate(127.246094 0)"/>
       <use xlink:href="#DejaVuSans-30" transform="translate(159.033203 0)"/>
      </g>
     </g>
    </g>
    <g id="ytick_6">
     <g id="line2d_15">
      <g>
       <use xlink:href="#mfa5dac49aa" x="98.629207" y="232.163031" style="stroke: #000000; stroke-width: 0.8"/>
      </g>
     </g>
     <g id="text_16">
      <!-- 37.5 -->
      <g transform="translate(69.363582 235.96225) scale(0.1 -0.1)">
       <use xlink:href="#DejaVuSans-33"/>
       <use xlink:href="#DejaVuSans-37" transform="translate(63.623047 0)"/>
       <use xlink:href="#DejaVuSans-2e" transform="translate(127.246094 0)"/>
       <use xlink:href="#DejaVuSans-35" transform="translate(159.033203 0)"/>
      </g>
     </g>
    </g>
    <g id="ytick_7">
     <g id="line2d_16">
      <g>
       <use xlink:href="#mfa5dac49aa" x="98.629207" y="164.057381" style="stroke: #000000; stroke-width: 0.8"/>
      </g>
     </g>
     <g id="text_17">
      <!-- 40.0 -->
      <g transform="translate(69.363582 167.856599) scale(0.1 -0.1)">
       <use xlink:href="#DejaVuSans-34"/>
       <use xlink:href="#DejaVuSans-30" transform="translate(63.623047 0)"/>
       <use xlink:href="#DejaVuSans-2e" transform="translate(127.246094 0)"/>
       <use xlink:href="#DejaVuSans-30" transform="translate(159.033203 0)"/>
      </g>
     </g>
    </g>
    <g id="ytick_8">
     <g id="line2d_17">
      <g>
       <use xlink:href="#mfa5dac49aa" x="98.629207" y="95.95173" style="stroke: #000000; stroke-width: 0.8"/>
      </g>
     </g>
     <g id="text_18">
      <!-- 42.5 -->
      <g transform="translate(69.363582 99.750948) scale(0.1 -0.1)">
       <use xlink:href="#DejaVuSans-34"/>
       <use xlink:href="#DejaVuSans-32" transform="translate(63.623047 0)"/>
       <use xlink:href="#DejaVuSans-2e" transform="translate(127.246094 0)"/>
       <use xlink:href="#DejaVuSans-35" transform="translate(159.033203 0)"/>
      </g>
     </g>
    </g>
    <g id="ytick_9">
     <g id="line2d_18">
      <g>
       <use xlink:href="#mfa5dac49aa" x="98.629207" y="27.846079" style="stroke: #000000; stroke-width: 0.8"/>
      </g>
     </g>
     <g id="text_19">
      <!-- 45.0 -->
      <g transform="translate(69.363582 31.645297) scale(0.1 -0.1)">
       <use xlink:href="#DejaVuSans-34"/>
       <use xlink:href="#DejaVuSans-35" transform="translate(63.623047 0)"/>
       <use xlink:href="#DejaVuSans-2e" transform="translate(127.246094 0)"/>
       <use xlink:href="#DejaVuSans-30" transform="translate(159.033203 0)"/>
      </g>
     </g>
    </g>
    <g id="text_20">
     <!-- DAX -->
     <g transform="translate(63.283894 314.956458) rotate(-90) scale(0.1 -0.1)">
      <defs>
       <path id="DejaVuSans-41" d="M 2188 4044 
L 1331 1722 
L 3047 1722 
L 2188 4044 
z
M 1831 4666 
L 2547 4666 
L 4325 0 
L 3669 0 
L 3244 1197 
L 1141 1197 
L 716 0 
L 50 0 
L 1831 4666 
z
" transform="scale(0.015625)"/>
       <path id="DejaVuSans-58" d="M 403 4666 
L 1081 4666 
L 2241 2931 
L 3406 4666 
L 4084 4666 
L 2584 2425 
L 4184 0 
L 3506 0 
L 2194 1984 
L 872 0 
L 191 0 
L 1856 2491 
L 403 4666 
z
" transform="scale(0.015625)"/>
      </defs>
      <use xlink:href="#DejaVuSans-44"/>
      <use xlink:href="#DejaVuSans-41" transform="translate(75.251953 0)"/>
      <use xlink:href="#DejaVuSans-58" transform="translate(143.660156 0)"/>
     </g>
    </g>
   </g>
   <g id="line2d_19">
    <path d="M 177.042277 489.163087 
L 179.07898 487.606299 
L 181.115683 495.649159 
L 183.152386 487.34686 
L 191.299199 489.941299 
L 193.335902 486.568596 
L 195.372605 480.860684 
L 197.409308 473.077419 
L 199.446012 473.881663 
L 205.556121 480.08242 
L 207.592824 473.596296 
L 209.629527 473.855787 
L 211.66623 479.563542 
L 213.702933 471.780225 
L 219.813043 470.223489 
L 221.849746 479.822981 
L 223.886449 478.525736 
L 225.923152 470.742418 
L 227.959855 467.888488 
L 234.069965 467.110172 
L 236.106668 478.266349 
L 238.143371 476.969051 
L 240.180074 478.006858 
L 242.216777 468.147979 
L 248.326887 469.704663 
L 250.36359 475.152928 
L 252.400293 473.336857 
L 254.436996 482.936402 
L 256.473699 483.714666 
L 262.583809 480.601349 
L 264.620512 485.790228 
L 266.657215 478.266349 
L 268.693918 476.709665 
L 270.730621 469.445173 
L 276.84073 471.261296 
L 278.877434 481.379613 
L 280.914137 494.351913 
L 282.95084 495.649159 
L 284.987543 490.719719 
L 293.134356 491.238545 
L 295.171059 506.805283 
L 297.207762 490.460228 
L 299.244465 488.644157 
L 305.354574 491.498087 
L 307.391277 491.498087 
L 309.427981 492.795229 
L 311.464684 483.455227 
L 313.501387 489.163087 
L 319.611496 479.044561 
L 321.648199 473.855787 
L 323.684902 471.261296 
L 325.721606 459.586294 
L 327.758309 455.954048 
L 335.905121 465.812979 
L 337.941824 471.261296 
L 339.978528 471.780225 
L 342.015231 483.455227 
L 348.12534 483.974105 
L 350.162043 479.822981 
L 352.198746 473.596296 
L 354.235449 479.669074 
L 356.272153 468.53124 
L 362.382262 470.785338 
L 366.455668 483.116497 
L 368.492371 499.027681 
L 370.529074 489.215827 
L 376.639184 486.563867 
L 378.675887 478.343146 
L 380.71259 458.188972 
L 382.749293 445.990468 
L 384.785996 449.968251 
L 390.896106 446.785983 
L 392.932809 447.316344 
L 394.969512 449.703045 
L 397.006215 454.211241 
L 399.042918 454.211241 
L 405.153028 458.984539 
L 407.189731 455.537065 
L 409.226434 456.067477 
L 411.263137 458.188972 
L 413.29984 445.194849 
L 419.40995 447.316344 
L 421.446653 458.454127 
L 423.483356 476.752064 
L 425.520059 478.608353 
L 427.556762 480.199435 
L 433.666872 471.448301 
L 435.703575 480.862399 
L 437.740278 479.669074 
L 439.776981 476.486806 
L 441.813684 482.851342 
L 447.923793 480.729796 
L 449.960497 491.337269 
L 451.9972 494.519538 
L 454.033903 497.171341 
L 456.070606 500.884022 
L 462.180715 495.315053 
L 464.217418 495.845413 
L 466.254122 493.989125 
L 468.290825 504.861753 
L 470.327528 499.823197 
L 476.437637 491.655475 
L 478.47434 480.729796 
L 480.511044 480.464641 
L 482.547747 485.23794 
L 484.58445 492.132888 
L 492.731262 503.270671 
L 494.767965 501.944691 
L 496.804669 505.126959 
L 498.841372 505.922475 
L 504.951481 498.232114 
L 506.988184 505.392166 
L 509.024887 508.57433 
L 511.06159 503.270671 
L 513.098294 502.342553 
L 519.208403 505.922475 
L 521.245106 508.043969 
L 523.281809 509.90031 
L 525.318512 518.121082 
L 527.355216 518.386289 
L 533.465325 527.932937 
L 535.502028 538.010102 
L 537.538731 540.927112 
L 539.575434 531.645566 
L 541.612137 532.971494 
L 547.722247 543.048607 
L 549.75895 551.79974 
L 551.795653 544.374535 
L 553.832356 543.844122 
L 555.869059 534.562576 
L 561.979169 538.540463 
L 564.015872 526.076649 
L 566.052575 524.22036 
L 568.089278 533.767061 
L 570.125981 544.10938 
L 576.236091 535.093041 
L 578.272794 534.827782 
L 580.309497 549.147885 
L 582.3462 547.026442 
L 584.382903 556.838245 
L 590.493013 552.330049 
L 592.529716 551.79974 
L 594.566419 555.512317 
L 596.603122 562.672421 
L 598.639825 566.119791 
L 604.749934 554.981957 
L 606.786638 555.777524 
L 608.823341 548.882679 
L 610.860044 536.153762 
L 612.896747 527.667835 
L 619.006856 531.645566 
L 621.04356 534.032267 
L 623.080263 529.524123 
L 625.116966 530.319586 
L 627.153669 526.607061 
L 633.263778 522.629226 
L 635.300481 499.027681 
L 637.337185 495.315053 
L 639.373888 490.276548 
L 641.410591 480.995002 
L 647.5207 478.343146 
L 649.557403 481.260208 
L 651.594106 481.260208 
L 655.667513 471.978662 
L 661.777622 475.691291 
L 663.814325 471.448301 
L 665.851028 464.28825 
L 667.887732 466.674951 
L 669.924435 460.045261 
L 676.034544 462.962322 
L 678.071247 460.045261 
L 680.10795 459.249746 
L 682.144653 454.211241 
L 684.181357 450.44556 
L 690.291466 448.907478 
L 692.328169 448.509669 
L 694.364872 436.974076 
L 696.401575 436.974076 
L 698.438278 443.868921 
L 704.548388 445.168401 
L 706.585091 436.284613 
L 708.621794 445.990468 
L 710.658497 436.974076 
L 712.6952 436.708922 
L 720.842013 430.874798 
L 722.878716 426.366603 
L 724.915419 433.472823 
L 726.952122 432.674346 
L 735.098935 440.924996 
L 737.135638 453.167926 
L 739.172341 448.643415 
L 741.209044 447.046513 
L 747.319154 436.666626 
L 749.355857 444.917328 
L 751.39256 438.795811 
L 753.429263 442.255808 
L 755.465966 440.126623 
L 763.612779 454.764828 
L 765.649482 459.289391 
L 767.686185 451.571025 
L 769.722888 447.844886 
L 775.832997 447.046513 
L 777.869701 449.707981 
L 779.906404 438.26358 
L 781.943107 439.86043 
L 783.97981 436.959424 
L 792.126623 436.134343 
L 794.163326 447.285999 
L 796.200029 436.666626 
L 798.236732 441.191138 
L 804.346841 445.848824 
L 806.383544 440.179779 
L 808.420248 443.852658 
L 810.456951 440.525784 
L 812.493654 441.989666 
L 818.603763 440.658906 
L 820.640466 452.635643 
L 822.677169 445.715701 
L 824.713873 436.932768 
L 826.750576 436.267414 
L 834.897388 433.206681 
L 836.934091 430.678284 
L 838.970795 416.173046 
L 841.007498 415.773834 
L 847.117607 412.180766 
L 849.15431 406.85783 
L 851.191013 404.196309 
L 853.227716 399.937836 
L 855.26442 396.211801 
L 861.374529 399.405604 
L 863.411232 399.405604 
L 865.447935 394.348706 
L 867.484638 385.033489 
L 869.521341 389.025666 
L 875.631451 388.759576 
L 877.668154 381.573544 
L 879.704857 378.379741 
L 881.74156 386.630339 
L 883.778263 383.569658 
L 889.888373 387.269141 
L 891.925076 385.006937 
L 893.961779 371.646181 
L 895.998482 378.113495 
L 898.035185 377.315174 
L 904.145295 373.589088 
L 906.181998 371.459747 
L 908.218701 361.346158 
L 910.255404 364.726187 
L 918.402217 368.798331 
L 920.43892 379.178166 
L 922.475623 368.532293 
L 924.512326 378.086996 
L 926.549029 378.912024 
L 932.659139 369.596756 
L 934.695842 379.710449 
L 936.732545 388.759576 
L 938.769248 394.881041 
L 940.805951 408.720873 
L 946.91606 407.656202 
L 948.952764 416.971523 
L 950.989467 409.785491 
L 953.02617 415.10848 
L 955.062873 414.043861 
L 961.172982 405.793159 
L 963.209685 389.824246 
L 965.246389 394.881041 
L 967.283092 397.170004 
L 969.319795 391.154954 
L 975.429904 391.314629 
L 977.466607 406.85783 
L 979.503311 406.831226 
L 981.540014 400.736364 
L 983.576717 391.421044 
L 989.686826 382.371969 
L 991.723529 374.121371 
L 993.760232 370.129039 
L 995.796936 360.281591 
L 997.833639 356.289259 
L 1003.943748 358.15225 
L 1005.980451 354.293249 
L 1008.017154 342.715621 
L 1010.053857 352.456757 
L 1012.090561 351.232464 
L 1018.20067 352.297031 
L 1020.237373 352.030889 
L 1022.274076 359.350044 
L 1024.310779 362.942903 
L 1026.347483 356.821542 
L 1034.494295 355.490834 
L 1036.530998 370.129039 
L 1038.567701 368.665208 
L 1040.604404 363.209149 
L 1046.714514 358.15225 
L 1048.751217 363.475395 
L 1050.78792 359.749204 
L 1052.824623 356.821542 
L 1054.861326 368.266048 
L 1060.971436 374.387409 
L 1063.008139 378.645883 
L 1065.044842 367.201377 
L 1067.081545 384.767296 
L 1069.118248 400.337152 
L 1075.228358 393.816423 
L 1077.265061 392.485662 
L 1081.338467 390.888813 
L 1083.37517 393.550281 
L 1089.48528 390.888813 
L 1091.521983 394.348706 
L 1093.558686 395.679414 
L 1095.595389 391.95738 
L 1097.632092 390.979276 
L 1103.742201 382.448351 
L 1105.778905 392.772432 
L 1107.815608 375.112777 
L 1111.889014 368.320606 
L 1117.999123 369.407412 
L 1120.035827 382.991754 
L 1122.07253 368.592256 
L 1124.109233 365.332047 
L 1126.145936 351.476055 
L 1132.256045 358.268226 
L 1134.292748 360.170084 
L 1136.329452 362.723838 
L 1140.402858 380.818247 
L 1146.512967 364.245241 
L 1148.54967 366.147203 
L 1150.586373 376.742986 
L 1152.623077 378.671863 
L 1154.65978 369.027061 
L 1160.769889 376.199583 
L 1162.806592 373.618497 
L 1164.843295 369.135658 
L 1166.879999 396.032693 
L 1168.916702 398.477902 
L 1175.026811 416.409206 
L 1177.063514 414.235699 
L 1179.100217 414.779102 
L 1181.13692 399.292902 
L 1183.173624 399.564603 
L 1189.283733 398.477902 
L 1191.320436 387.474541 
L 1193.357139 384.078507 
L 1197.430545 362.343487 
L 1203.540655 352.019458 
L 1205.577358 353.377913 
L 1207.614061 344.901287 
L 1209.650764 348.487496 
L 1211.687467 335.446556 
L 1217.797577 335.989959 
L 1219.83428 331.398419 
L 1221.870983 332.865471 
L 1223.907686 330.827789 
L 1225.944389 331.914594 
L 1234.091202 344.955533 
L 1236.127905 345.77069 
L 1238.164608 342.863604 
L 1240.201311 360.849208 
L 1246.311421 352.83451 
L 1248.348124 362.153312 
L 1250.384827 355.82307 
L 1252.42153 346.585742 
L 1254.458233 339.521817 
L 1260.568343 333.599049 
L 1262.605046 338.163362 
L 1264.641749 333.816452 
L 1266.678452 318.330252 
L 1268.715155 330.556139 
L 1274.825264 326.752631 
L 1276.861968 316.971901 
L 1278.898671 324.986598 
L 1280.935374 301.62163 
L 1282.972077 299.583947 
L 1289.082186 299.855596 
L 1291.118889 313.711692 
L 1293.155593 320.096181 
L 1295.192296 329.469437 
L 1297.228999 323.08474 
L 1303.339108 332.457997 
L 1305.375811 329.197788 
L 1307.412515 321.862214 
L 1309.449218 327.839229 
L 1311.485921 317.5152 
L 1317.59603 315.613446 
L 1319.632733 318.602005 
L 1321.669436 321.862214 
L 1323.70614 318.602005 
L 1325.742843 311.266431 
L 1331.852952 322.94902 
L 1333.889655 328.926035 
L 1335.926358 332.457997 
L 1337.963061 325.937475 
L 1339.999765 327.839229 
L 1346.109874 322.405617 
L 1348.146577 323.764072 
L 1350.18328 331.452769 
L 1352.219983 337.076661 
L 1354.256687 335.039082 
L 1360.366796 335.364978 
L 1362.403499 324.307371 
L 1364.440202 347.129145 
L 1366.476905 328.21958 
L 1368.513608 342.890728 
L 1374.623718 342.238727 
L 1376.660421 358.268226 
L 1378.697124 370.494217 
L 1380.733827 360.441733 
L 1382.77053 359.898331 
L 1388.88064 357.724823 
L 1390.917343 365.332047 
L 1392.954046 365.332047 
L 1394.990749 367.858781 
L 1397.027452 365.875449 
L 1403.137562 355.279667 
L 1405.174265 362.615241 
L 1407.210968 354.464615 
L 1411.284374 334.088101 
L 1417.394484 327.56758 
L 1419.431187 326.209229 
L 1421.46789 312.353133 
L 1423.504593 301.75735 
L 1425.541296 303.170156 
L 1431.651405 306.104365 
L 1433.688109 310.587204 
L 1435.724812 306.376118 
L 1437.761515 310.913204 
L 1439.798218 307.462716 
L 1445.908327 310.967555 
L 1447.945031 317.352252 
L 1449.981734 338.51659 
L 1452.018437 340.06522 
L 1454.05514 338.706765 
L 1460.165249 342.238727 
L 1462.201952 332.729646 
L 1466.275359 326.752631 
L 1468.312062 338.435116 
L 1474.422171 342.494165 
L 1476.458874 346.062915 
L 1480.532281 351.21168 
L 1482.568984 348.759873 
L 1488.679093 329.96275 
L 1490.715796 325.87637 
L 1492.752499 326.14885 
L 1496.825906 339.225123 
L 1502.936015 341.949307 
L 1504.972718 328.328177 
L 1507.009421 313.072578 
L 1509.046124 311.165628 
L 1511.082828 305.989532 
L 1519.22964 277.930037 
L 1521.266343 274.933372 
L 1523.303046 262.401957 
L 1525.33975 261.857099 
L 1531.449859 261.884327 
L 1533.486562 264.581284 
L 1535.523265 260.222526 
L 1537.559968 257.225861 
L 1539.596671 264.853765 
L 1545.706781 280.844917 
L 1547.743484 271.119472 
L 1551.81689 247.691112 
L 1553.853593 260.495007 
L 1559.963703 252.049869 
L 1562.000406 241.697781 
L 1564.037109 228.893989 
L 1566.073812 212.684811 
L 1568.110515 209.007152 
L 1576.257328 196.748114 
L 1578.294031 219.522604 
L 1580.330734 217.179809 
L 1582.367437 228.349132 
L 1588.477547 221.810943 
L 1590.51425 205.738006 
L 1592.550953 206.010486 
L 1594.587656 224.535232 
L 1596.624359 219.086759 
L 1602.734468 186.668507 
L 1604.771172 189.12021 
L 1606.807875 144.44292 
L 1608.844578 146.622351 
L 1610.881281 139.811785 
L 1616.99139 172.230038 
L 1619.028094 170.867946 
L 1621.064797 162.422807 
L 1623.1015 174.681845 
L 1625.138203 143.898062 
L 1631.248312 131.639128 
L 1633.285015 123.466367 
L 1635.321719 130.276932 
L 1637.358422 151.798343 
L 1639.395125 159.426246 
L 1645.505234 161.333196 
L 1647.541937 150.708627 
L 1649.57864 174.136988 
L 1651.615344 173.59213 
L 1653.652047 179.857941 
L 1659.762156 188.575456 
L 1659.762156 188.575456 
" clip-path="url(#p4a6cc02dc8)" style="fill: none; stroke: #1f77b4; stroke-width: 1.5; stroke-linecap: square"/>
   </g>
   <g id="line2d_20">
    <path d="M 1661.798859 167.401454 
L 1663.835562 163.004557 
L 1665.872266 157.119824 
L 1667.908969 161.925234 
L 1674.019078 206.550252 
L 1676.055781 179.206773 
L 1678.092484 146.93588 
L 1680.129187 145.574204 
L 1682.165891 199.293866 
L 1688.276 166.440912 
L 1690.312703 241.833502 
L 1692.349406 139.569338 
L 1694.386109 194.614616 
L 1696.422812 166.074071 
L 1702.532922 109.660881 
L 1704.569625 150.746039 
L 1706.606328 116.599373 
L 1708.643031 100.479359 
L 1710.679734 131.461631 
L 1716.789844 113.796832 
L 1718.826547 90.929333 
L 1720.86325 71.909716 
L 1722.899953 91.474294 
L 1724.936656 53.234597 
L 1731.046766 88.037732 
L 1733.083469 50.516232 
L 1735.120172 122.315754 
L 1737.156875 143.904193 
L 1739.193578 42.577501 
L 1745.303688 111.618856 
" clip-path="url(#p4a6cc02dc8)" style="fill: none; stroke: #ffa500; stroke-width: 1.5; stroke-linecap: square"/>
   </g>
   <g id="line2d_21">
    <path d="M 1576.257328 227.209638 
L 1578.294031 219.222791 
L 1580.330734 215.794958 
L 1582.367437 215.307361 
L 1588.477547 243.427442 
L 1590.51425 224.515383 
L 1592.550953 213.457775 
L 1594.587656 206.887372 
L 1596.624359 242.494855 
L 1602.734468 218.591264 
L 1604.771172 263.898211 
L 1606.807875 191.571498 
L 1608.844578 224.38995 
L 1610.881281 216.605438 
L 1616.99139 179.238261 
L 1619.028094 197.655552 
L 1621.064797 178.653913 
L 1623.1015 176.410571 
L 1625.138203 180.900684 
L 1631.248312 175.551352 
L 1633.285015 163.033551 
L 1635.321719 142.37853 
L 1637.358422 163.638683 
L 1639.395125 141.115474 
L 1645.505234 153.380747 
L 1647.541937 140.529152 
L 1649.57864 170.314982 
L 1651.615344 193.753943 
L 1653.652047 136.30996 
L 1659.762156 167.407273 
" clip-path="url(#p4a6cc02dc8)" style="fill: none; stroke-dasharray: 5.55,2.4; stroke-dashoffset: 0; stroke: #008000; stroke-width: 1.5"/>
   </g>
   <g id="patch_3">
    <path d="M 98.629207 592.296906 
L 98.629207 16.400386 
" style="fill: none; stroke: #000000; stroke-width: 0.8; stroke-linejoin: miter; stroke-linecap: square"/>
   </g>
   <g id="patch_4">
    <path d="M 1823.716758 592.296906 
L 1823.716758 16.400386 
" style="fill: none; stroke: #000000; stroke-width: 0.8; stroke-linejoin: miter; stroke-linecap: square"/>
   </g>
   <g id="patch_5">
    <path d="M 98.629207 592.296906 
L 1823.716758 592.296906 
" style="fill: none; stroke: #000000; stroke-width: 0.8; stroke-linejoin: miter; stroke-linecap: square"/>
   </g>
   <g id="patch_6">
    <path d="M 98.629207 16.400386 
L 1823.716758 16.400386 
" style="fill: none; stroke: #000000; stroke-width: 0.8; stroke-linejoin: miter; stroke-linecap: square"/>
   </g>
   <g id="legend_1">
    <g id="patch_7">
     <path d="M 105.629207 68.434761 
L 187.302644 68.434761 
Q 189.302644 68.434761 189.302644 66.434761 
L 189.302644 23.400386 
Q 189.302644 21.400386 187.302644 21.400386 
L 105.629207 21.400386 
Q 103.629207 21.400386 103.629207 23.400386 
L 103.629207 66.434761 
Q 103.629207 68.434761 105.629207 68.434761 
z
" style="fill: #ffffff; opacity: 0.8; stroke: #cccccc; stroke-linejoin: miter"/>
    </g>
    <g id="line2d_22">
     <path d="M 107.629207 29.498824 
L 117.629207 29.498824 
L 127.629207 29.498824 
" style="fill: none; stroke: #1f77b4; stroke-width: 1.5; stroke-linecap: square"/>
    </g>
    <g id="text_21">
     <!-- Real -->
     <g transform="translate(135.629207 32.998824) scale(0.1 -0.1)">
      <defs>
       <path id="DejaVuSans-52" d="M 2841 2188 
Q 3044 2119 3236 1894 
Q 3428 1669 3622 1275 
L 4263 0 
L 3584 0 
L 2988 1197 
Q 2756 1666 2539 1819 
Q 2322 1972 1947 1972 
L 1259 1972 
L 1259 0 
L 628 0 
L 628 4666 
L 2053 4666 
Q 2853 4666 3247 4331 
Q 3641 3997 3641 3322 
Q 3641 2881 3436 2590 
Q 3231 2300 2841 2188 
z
M 1259 4147 
L 1259 2491 
L 2053 2491 
Q 2509 2491 2742 2702 
Q 2975 2913 2975 3322 
Q 2975 3731 2742 3939 
Q 2509 4147 2053 4147 
L 1259 4147 
z
" transform="scale(0.015625)"/>
       <path id="DejaVuSans-6c" d="M 603 4863 
L 1178 4863 
L 1178 0 
L 603 0 
L 603 4863 
z
" transform="scale(0.015625)"/>
      </defs>
      <use xlink:href="#DejaVuSans-52"/>
      <use xlink:href="#DejaVuSans-65" transform="translate(64.982422 0)"/>
      <use xlink:href="#DejaVuSans-61" transform="translate(126.505859 0)"/>
      <use xlink:href="#DejaVuSans-6c" transform="translate(187.785156 0)"/>
     </g>
    </g>
    <g id="line2d_23">
     <path d="M 107.629207 44.176949 
L 117.629207 44.176949 
L 127.629207 44.176949 
" style="fill: none; stroke: #ffa500; stroke-width: 1.5; stroke-linecap: square"/>
    </g>
    <g id="text_22">
     <!-- Forecast -->
     <g transform="translate(135.629207 47.676949) scale(0.1 -0.1)">
      <defs>
       <path id="DejaVuSans-46" d="M 628 4666 
L 3309 4666 
L 3309 4134 
L 1259 4134 
L 1259 2759 
L 3109 2759 
L 3109 2228 
L 1259 2228 
L 1259 0 
L 628 0 
L 628 4666 
z
" transform="scale(0.015625)"/>
       <path id="DejaVuSans-6f" d="M 1959 3097 
Q 1497 3097 1228 2736 
Q 959 2375 959 1747 
Q 959 1119 1226 758 
Q 1494 397 1959 397 
Q 2419 397 2687 759 
Q 2956 1122 2956 1747 
Q 2956 2369 2687 2733 
Q 2419 3097 1959 3097 
z
M 1959 3584 
Q 2709 3584 3137 3096 
Q 3566 2609 3566 1747 
Q 3566 888 3137 398 
Q 2709 -91 1959 -91 
Q 1206 -91 779 398 
Q 353 888 353 1747 
Q 353 2609 779 3096 
Q 1206 3584 1959 3584 
z
" transform="scale(0.015625)"/>
       <path id="DejaVuSans-72" d="M 2631 2963 
Q 2534 3019 2420 3045 
Q 2306 3072 2169 3072 
Q 1681 3072 1420 2755 
Q 1159 2438 1159 1844 
L 1159 0 
L 581 0 
L 581 3500 
L 1159 3500 
L 1159 2956 
Q 1341 3275 1631 3429 
Q 1922 3584 2338 3584 
Q 2397 3584 2469 3576 
Q 2541 3569 2628 3553 
L 2631 2963 
z
" transform="scale(0.015625)"/>
       <path id="DejaVuSans-63" d="M 3122 3366 
L 3122 2828 
Q 2878 2963 2633 3030 
Q 2388 3097 2138 3097 
Q 1578 3097 1268 2742 
Q 959 2388 959 1747 
Q 959 1106 1268 751 
Q 1578 397 2138 397 
Q 2388 397 2633 464 
Q 2878 531 3122 666 
L 3122 134 
Q 2881 22 2623 -34 
Q 2366 -91 2075 -91 
Q 1284 -91 818 406 
Q 353 903 353 1747 
Q 353 2603 823 3093 
Q 1294 3584 2113 3584 
Q 2378 3584 2631 3529 
Q 2884 3475 3122 3366 
z
" transform="scale(0.015625)"/>
       <path id="DejaVuSans-73" d="M 2834 3397 
L 2834 2853 
Q 2591 2978 2328 3040 
Q 2066 3103 1784 3103 
Q 1356 3103 1142 2972 
Q 928 2841 928 2578 
Q 928 2378 1081 2264 
Q 1234 2150 1697 2047 
L 1894 2003 
Q 2506 1872 2764 1633 
Q 3022 1394 3022 966 
Q 3022 478 2636 193 
Q 2250 -91 1575 -91 
Q 1294 -91 989 -36 
Q 684 19 347 128 
L 347 722 
Q 666 556 975 473 
Q 1284 391 1588 391 
Q 1994 391 2212 530 
Q 2431 669 2431 922 
Q 2431 1156 2273 1281 
Q 2116 1406 1581 1522 
L 1381 1569 
Q 847 1681 609 1914 
Q 372 2147 372 2553 
Q 372 3047 722 3315 
Q 1072 3584 1716 3584 
Q 2034 3584 2315 3537 
Q 2597 3491 2834 3397 
z
" transform="scale(0.015625)"/>
      </defs>
      <use xlink:href="#DejaVuSans-46"/>
      <use xlink:href="#DejaVuSans-6f" transform="translate(53.894531 0)"/>
      <use xlink:href="#DejaVuSans-72" transform="translate(115.076172 0)"/>
      <use xlink:href="#DejaVuSans-65" transform="translate(153.939453 0)"/>
      <use xlink:href="#DejaVuSans-63" transform="translate(215.462891 0)"/>
      <use xlink:href="#DejaVuSans-61" transform="translate(270.443359 0)"/>
      <use xlink:href="#DejaVuSans-73" transform="translate(331.722656 0)"/>
      <use xlink:href="#DejaVuSans-74" transform="translate(383.822266 0)"/>
     </g>
    </g>
    <g id="line2d_24">
     <path d="M 107.629207 58.855074 
L 117.629207 58.855074 
L 127.629207 58.855074 
" style="fill: none; stroke-dasharray: 5.55,2.4; stroke-dashoffset: 0; stroke: #008000; stroke-width: 1.5"/>
    </g>
    <g id="text_23">
     <!-- Prediction -->
     <g transform="translate(135.629207 62.355074) scale(0.1 -0.1)">
      <defs>
       <path id="DejaVuSans-50" d="M 1259 4147 
L 1259 2394 
L 2053 2394 
Q 2494 2394 2734 2622 
Q 2975 2850 2975 3272 
Q 2975 3691 2734 3919 
Q 2494 4147 2053 4147 
L 1259 4147 
z
M 628 4666 
L 2053 4666 
Q 2838 4666 3239 4311 
Q 3641 3956 3641 3272 
Q 3641 2581 3239 2228 
Q 2838 1875 2053 1875 
L 1259 1875 
L 1259 0 
L 628 0 
L 628 4666 
z
" transform="scale(0.015625)"/>
       <path id="DejaVuSans-64" d="M 2906 2969 
L 2906 4863 
L 3481 4863 
L 3481 0 
L 2906 0 
L 2906 525 
Q 2725 213 2448 61 
Q 2172 -91 1784 -91 
Q 1150 -91 751 415 
Q 353 922 353 1747 
Q 353 2572 751 3078 
Q 1150 3584 1784 3584 
Q 2172 3584 2448 3432 
Q 2725 3281 2906 2969 
z
M 947 1747 
Q 947 1113 1208 752 
Q 1469 391 1925 391 
Q 2381 391 2643 752 
Q 2906 1113 2906 1747 
Q 2906 2381 2643 2742 
Q 2381 3103 1925 3103 
Q 1469 3103 1208 2742 
Q 947 2381 947 1747 
z
" transform="scale(0.015625)"/>
       <path id="DejaVuSans-69" d="M 603 3500 
L 1178 3500 
L 1178 0 
L 603 0 
L 603 3500 
z
M 603 4863 
L 1178 4863 
L 1178 4134 
L 603 4134 
L 603 4863 
z
" transform="scale(0.015625)"/>
       <path id="DejaVuSans-6e" d="M 3513 2113 
L 3513 0 
L 2938 0 
L 2938 2094 
Q 2938 2591 2744 2837 
Q 2550 3084 2163 3084 
Q 1697 3084 1428 2787 
Q 1159 2491 1159 1978 
L 1159 0 
L 581 0 
L 581 3500 
L 1159 3500 
L 1159 2956 
Q 1366 3272 1645 3428 
Q 1925 3584 2291 3584 
Q 2894 3584 3203 3211 
Q 3513 2838 3513 2113 
z
" transform="scale(0.015625)"/>
      </defs>
      <use xlink:href="#DejaVuSans-50"/>
      <use xlink:href="#DejaVuSans-72" transform="translate(58.552734 0)"/>
      <use xlink:href="#DejaVuSans-65" transform="translate(97.416016 0)"/>
      <use xlink:href="#DejaVuSans-64" transform="translate(158.939453 0)"/>
      <use xlink:href="#DejaVuSans-69" transform="translate(222.416016 0)"/>
      <use xlink:href="#DejaVuSans-63" transform="translate(250.199219 0)"/>
      <use xlink:href="#DejaVuSans-74" transform="translate(305.179688 0)"/>
      <use xlink:href="#DejaVuSans-69" transform="translate(344.388672 0)"/>
      <use xlink:href="#DejaVuSans-6f" transform="translate(372.171875 0)"/>
      <use xlink:href="#DejaVuSans-6e" transform="translate(433.353516 0)"/>
     </g>
    </g>
   </g>
  </g>
 </g>
 <defs>
  <clipPath id="p4a6cc02dc8">
   <rect x="98.629207" y="16.400386" width="1725.087552" height="575.89652"/>
  </clipPath>
 </defs>
</svg>
